<?xml version="1.0" standalone="no"?>
<!DOCTYPE svg PUBLIC "-//W3C//DTD SVG 20010904//EN"
 "http://www.w3.org/TR/2001/REC-SVG-20010904/DTD/svg10.dtd">
<svg version="1.0" xmlns="http://www.w3.org/2000/svg"
 width="125.000000pt" height="44.000000pt" viewBox="0 0 125.000000 44.000000"
 preserveAspectRatio="xMidYMid meet">
<metadata>
Created by potrace 1.13, written by Peter Selinger 2001-2015
</metadata>
<g transform="translate(0.000000,44.000000) scale(0.100000,-0.100000)"
fill="#000000" stroke="none">
<path d="M0 220 l0 -220 82 0 c76 0 81 1 61 15 -12 8 -29 35 -39 60 -21 57 -8
111 35 148 l29 24 -34 30 c-26 23 -34 38 -34 65 0 39 17 59 70 82 34 15 33 15
-67 16 l-103 0 0 -220z"/>
<path d="M218 433 c7 -3 16 -2 19 1 4 3 -2 6 -13 5 -11 0 -14 -3 -6 -6z"/>
<path d="M287 421 c44 -21 63 -45 63 -83 0 -27 -27 -71 -40 -63 -5 3 -15 -7
-22 -23 -14 -27 -14 -28 12 -24 80 12 91 -188 12 -217 -18 -6 126 -10 456 -10
l482 -1 0 82 c0 77 -1 81 -16 60 -11 -16 -25 -22 -52 -22 -20 0 -42 4 -48 8
-22 14 -35 53 -29 83 5 23 12 29 32 29 21 0 23 -2 13 -14 -26 -33 7 -87 45
-73 13 6 16 16 13 47 -3 30 0 40 14 43 9 3 19 0 22 -7 2 -6 5 37 5 97 l1 107
-502 0 c-502 0 -503 0 -461 -19z m296 -199 c20 -17 23 -72 5 -90 -7 -7 -34
-12 -60 -12 -41 0 -48 3 -48 19 0 17 5 19 36 14 25 -4 39 -2 45 8 14 23 11 28
-33 51 -41 21 -42 22 -18 28 29 8 48 3 73 -18z m87 -27 c0 -33 4 -45 15 -45 8
0 15 -7 15 -15 0 -18 -41 -20 -58 -3 -7 7 -12 34 -12 60 0 41 3 48 20 48 17 0
20 -7 20 -45z m92 3 c2 -35 7 -43 23 -43 16 0 21 8 23 43 3 34 7 42 23 42 17
0 19 -7 19 -59 l0 -58 -55 -2 c-63 -1 -75 11 -75 78 0 34 3 41 19 41 16 0 20
-8 23 -42z m158 28 c-15 -19 -9 -56 12 -69 34 -22 66 41 36 71 -9 9 -6 12 15
12 26 0 27 -2 27 -59 l0 -58 -52 -2 c-58 -1 -74 8 -83 49 -10 44 2 70 32 70
21 0 23 -2 13 -14z m160 -46 c0 -47 -3 -60 -15 -60 -12 0 -15 13 -15 60 0 47
3 60 15 60 12 0 15 -13 15 -60z"/>
<path d="M202 270 c0 -19 2 -27 5 -17 2 9 2 25 0 35 -3 9 -5 1 -5 -18z"/>
</g>
</svg>
